<svg width="20" height="20" viewBox="0 0 20 20" fill="black" xmlns="http://www.w3.org/2000/svg">
<path d="M10 4.54545C11.4466 4.54545 12.834 5.12013 13.8569 6.14305C14.8799 7.16598 15.4545 8.55336 15.4545 10C15.4545 12.0182 14.3545 13.7818 12.7273 14.7273V16.3636C12.7273 16.6047 12.6315 16.836 12.461 17.0065C12.2905 17.177 12.0593 17.2727 11.8182 17.2727H8.18182C7.94071 17.2727 7.70948 17.177 7.53899 17.0065C7.36851 16.836 7.27273 16.6047 7.27273 16.3636V14.7273C5.64545 13.7818 4.54545 12.0182 4.54545 10C4.54545 8.55336 5.12013 7.16598 6.14305 6.14305C7.16598 5.12013 8.55336 4.54545 10 4.54545ZM11.8182 18.1818V19.0909C11.8182 19.332 11.7224 19.5632 11.5519 19.7337C11.3814 19.9042 11.1502 20 10.9091 20H9.09091C8.8498 20 8.61857 19.9042 8.44808 19.7337C8.2776 19.5632 8.18182 19.332 8.18182 19.0909V18.1818H11.8182ZM17.2727 9.09091H20V10.9091H17.2727V9.09091ZM0 9.09091H2.72727V10.9091H0V9.09091ZM10.9091 0V2.72727H9.09091V0H10.9091ZM3.56364 2.27273L5.5 4.21818L4.20909 5.5L2.27273 3.57273L3.56364 2.27273ZM14.5 4.20909L16.4273 2.27273L17.7273 3.57273L15.7909 5.5L14.5 4.20909Z" fill="black" />
</svg>
