<svg width="20" height="20" viewBox="0 0 20 20" fill="none" xmlns="http://www.w3.org/2000/svg">
<path d="M17.95 8.4C17.75 7.41111 16.95 6.66667 16 6.66667H13.46C13.81 6.01111 14 5.25556 14 4.44444C14 3.2657 13.5786 2.13524 12.8284 1.30175C12.0783 0.468252 11.0609 0 10 0C8.93913 0 7.92172 0.468252 7.17157 1.30175C6.42143 2.13524 6 3.2657 6 4.44444C6 5.25556 6.19 6.01111 6.54 6.66667H4C3.05 6.66667 2.25 7.41111 2.05 8.4C0.0400002 17.3 0 17.5333 0 17.7778C0 18.3671 0.210714 18.9324 0.585786 19.3491C0.960859 19.7659 1.46957 20 2 20H18C18.5304 20 19.0391 19.7659 19.4142 19.3491C19.7893 18.9324 20 18.3671 20 17.7778C20 17.5333 19.96 17.3 17.95 8.4ZM10 2.22222C10.5304 2.22222 11.0391 2.45635 11.4142 2.8731C11.7893 3.28984 12 3.85507 12 4.44444C12 5.03381 11.7893 5.59905 11.4142 6.01579C11.0391 6.43254 10.5304 6.66667 10 6.66667C9.46957 6.66667 8.96086 6.43254 8.58579 6.01579C8.21071 5.59905 8 5.03381 8 4.44444C8 3.85507 8.21071 3.28984 8.58579 2.8731C8.96086 2.45635 9.46957 2.22222 10 2.22222ZM13 11.1111H9V15.5556H11V12.2222H13V17.7778H9C7.89 17.7778 7 16.7889 7 15.5556V11.1111C7 9.87778 7.89 8.88889 9 8.88889H13V11.1111Z" fill="black"/>
</svg>
