<svg width="26" height="26" viewBox="0 0 26 26" fill="none" xmlns="http://www.w3.org/2000/svg">
<path d="M13.25 20.75C13.25 21.625 13.4125 22.4625 13.6875 23.25H3.25C1.875 23.25 0.75 22.1375 0.75 20.75V3.25C0.75 1.875 1.875 0.75 3.25 0.75H20.75C22.1375 0.75 23.25 1.875 23.25 3.25V13.6875C22.4625 13.4125 21.625 13.25 20.75 13.25V3.25H3.25V20.75H13.25ZM14.45 12.3625L11.0125 16.7875L8.5625 13.8375L5.125 18.25H13.6875C14.1875 16.85 15.0875 15.6375 16.25 14.7625L14.45 12.3625ZM22 19.5V15.75H19.5V19.5H15.75V22H19.5V25.75H22V22H25.75V19.5H22Z" fill="#595959"/>
</svg>
