<svg width="9" height="9" viewBox="0 0 9 9" fill="none" xmlns="http://www.w3.org/2000/svg">
<path d="M4.58333 2.91667H3.75V2.08333H4.58333M4.58333 6.25H3.75V3.75H4.58333M4.16667 0C3.61949 0 3.07768 0.107774 2.57215 0.317169C2.06663 0.526563 1.6073 0.833478 1.22039 1.22039C0.438987 2.00179 0 3.0616 0 4.16667C0 5.27174 0.438987 6.33154 1.22039 7.11294C1.6073 7.49986 2.06663 7.80677 2.57215 8.01616C3.07768 8.22556 3.61949 8.33333 4.16667 8.33333C5.27174 8.33333 6.33154 7.89435 7.11294 7.11294C7.89435 6.33154 8.33333 5.27174 8.33333 4.16667C8.33333 3.61949 8.22556 3.07768 8.01616 2.57215C7.80677 2.06663 7.49986 1.6073 7.11294 1.22039C6.72603 0.833478 6.2667 0.526563 5.76118 0.317169C5.25566 0.107774 4.71384 0 4.16667 0Z" fill="black"/>
</svg>
